<svg width="25" height="25" viewBox="0 0 25 25" fill="none" xmlns="http://www.w3.org/2000/svg">
<g clip-path="url(#clip0)">
<path d="M10.4829 19.6694C9.27051 19.6694 8.28418 20.6557 8.28418 21.8681C8.28418 23.0804 9.27051 24.0667 10.4829 24.0667C11.6952 24.0667 12.6816 23.0804 12.6816 21.8681C12.6815 20.6557 11.6952 19.6694 10.4829 19.6694ZM10.4829 22.839C9.94741 22.839 9.51182 22.4034 9.51182 21.868C9.51182 21.3325 9.94746 20.8969 10.4829 20.8969C11.0183 20.8969 11.4539 21.3326 11.4539 21.868C11.4539 22.4035 11.0183 22.839 10.4829 22.839Z" fill="black"/>
<path d="M18.1948 19.6694C16.9824 19.6694 15.9961 20.6557 15.9961 21.8681C15.9961 23.0804 16.9824 24.0667 18.1948 24.0667C19.4071 24.0667 20.3935 23.0804 20.3935 21.8681C20.3934 20.6557 19.4071 19.6694 18.1948 19.6694ZM18.1948 22.839C17.6593 22.839 17.2237 22.4034 17.2237 21.868C17.2237 21.3325 17.6594 20.8969 18.1948 20.8969C18.7302 20.8969 19.1658 21.3326 19.1658 21.868C19.1658 22.4035 18.7302 22.839 18.1948 22.839Z" fill="black"/>
<path d="M18.7359 8.09352H9.9395C9.60049 8.09352 9.32568 8.36833 9.32568 8.70734C9.32568 9.04636 9.60054 9.32116 9.9395 9.32116H18.7359C19.0749 9.32116 19.3497 9.04636 19.3497 8.70734C19.3497 8.36828 19.0749 8.09352 18.7359 8.09352Z" fill="black"/>
<path d="M18.2573 11.281H10.4185C10.0795 11.281 9.80469 11.5558 9.80469 11.8948C9.80469 12.2339 10.0795 12.5087 10.4185 12.5087H18.2572C18.5963 12.5087 18.8711 12.2339 18.8711 11.8948C18.8711 11.5559 18.5963 11.281 18.2573 11.281Z" fill="black"/>
<path d="M24.7232 5.3586C24.4892 5.0713 24.1423 4.90655 23.7716 4.90655H4.65178L4.26565 3.03208C4.18504 2.64107 3.91834 2.31275 3.55208 2.15371L0.857884 0.984276C0.546849 0.849168 0.185374 0.991893 0.0504615 1.30283C-0.0845973 1.61387 0.0581275 1.97539 0.369016 2.1103L3.06326 3.27979L6.03328 17.6969C6.15027 18.2646 6.65594 18.6767 7.23567 18.6767H21.9411C22.2801 18.6767 22.5549 18.4019 22.5549 18.0629C22.5549 17.7239 22.2801 17.4491 21.9411 17.4491H7.23572L6.87444 15.6954H22.0547C22.6344 15.6954 23.1401 15.2833 23.2571 14.7155L24.974 6.38175C25.0488 6.01886 24.9574 5.64586 24.7232 5.3586ZM22.0547 14.4678H6.62156L4.90471 6.13414L23.7716 6.13419L22.0547 14.4678Z" fill="black"/>
</g>
<defs>
<clipPath id="clip0">
<rect width="25" height="25" fill="white"/>
</clipPath>
</defs>
</svg>
