<svg width="25" height="25" viewBox="0 0 25 25" fill="none" xmlns="http://www.w3.org/2000/svg">
<path d="M23.0573 9.84922C23.51 9.40796 23.6698 8.76035 23.4745 8.15913C23.2791 7.55791 22.7692 7.12798 22.1436 7.03711L16.6734 6.24224C16.566 6.22666 16.4732 6.15923 16.4251 6.06187L13.9788 1.10508C13.699 0.538185 13.1325 0.186036 12.5004 0.186036C11.8682 0.186036 11.3017 0.538185 11.0219 1.10508L8.57561 6.06192C8.52752 6.15923 8.43474 6.22666 8.32732 6.24229L2.8572 7.03711C2.23162 7.12798 1.7217 7.55791 1.52629 8.15913C1.33088 8.76035 1.49075 9.40796 1.94348 9.84922L5.90173 13.7076C5.97942 13.7833 6.01492 13.8925 5.99656 13.9995L5.06213 19.4475C4.9553 20.0706 5.20657 20.6884 5.71799 21.06C6.22942 21.4317 6.89485 21.4797 7.45432 21.1856L12.3469 18.6134C12.443 18.5628 12.5577 18.5628 12.6539 18.6134L17.5466 21.1856C17.7899 21.3135 18.0532 21.3768 18.3153 21.3767C18.6556 21.3767 18.9938 21.2701 19.2827 21.06C19.7942 20.6883 20.0455 20.0705 19.9386 19.4475L19.0042 13.9994C18.9859 13.8924 19.0213 13.7833 19.099 13.7075L23.0573 9.84922ZM17.7043 14.2225L18.6387 19.6706C18.67 19.8529 18.5574 19.9569 18.5076 19.9931C18.4577 20.0292 18.324 20.1042 18.1603 20.0181L13.2677 17.4459C13.0275 17.3197 12.764 17.2565 12.5005 17.2565C12.2369 17.2565 11.9734 17.3197 11.7333 17.4458L6.84065 20.018C6.67688 20.1041 6.54324 20.0292 6.49338 19.993C6.44353 19.9568 6.33093 19.8528 6.36223 19.6705L7.29666 14.2225C7.3884 13.6875 7.21121 13.142 6.82249 12.7632L2.86423 8.90483C2.73176 8.77564 2.76174 8.62539 2.78084 8.5668C2.79983 8.50815 2.86394 8.36895 3.047 8.34238L8.51707 7.54751C9.05413 7.46948 9.51824 7.13237 9.75847 6.64561L12.2048 1.68877C12.2867 1.5229 12.4388 1.50498 12.5005 1.50498C12.5621 1.50498 12.7142 1.52285 12.7962 1.68877V1.68882L15.2425 6.64566C15.4827 7.13242 15.9468 7.46953 16.4838 7.54756L21.954 8.34243C22.137 8.36899 22.2011 8.5082 22.2201 8.56685C22.2392 8.62549 22.2692 8.77578 22.1367 8.90488L18.1784 12.7632C17.7898 13.142 17.6126 13.6875 17.7043 14.2225Z" fill="black"/>
<path d="M20.2042 1.10474C19.9095 0.890673 19.4971 0.956005 19.2831 1.25063L18.583 2.21411C18.369 2.50874 18.4342 2.92119 18.7289 3.13525C18.8461 3.22026 18.9817 3.26123 19.116 3.26123C19.32 3.26123 19.5211 3.16694 19.6501 2.9894L20.3501 2.02593C20.5642 1.73125 20.4989 1.3188 20.2042 1.10474Z" fill="black"/>
<path d="M6.41358 2.21021L5.71353 1.24673C5.49951 0.952198 5.08711 0.886866 4.79238 1.10083C4.49776 1.31489 4.43242 1.72734 4.64649 2.02197L5.34654 2.98545C5.47559 3.16314 5.67666 3.25737 5.88067 3.25737C6.01509 3.25737 6.15073 3.21641 6.26773 3.13135C6.56236 2.91733 6.62769 2.50488 6.41358 2.21021Z" fill="black"/>
<path d="M2.41952 14.9819C2.30697 14.6356 1.93495 14.4459 1.58852 14.5585L0.45585 14.9266C0.109414 15.0391 -0.080088 15.4112 0.0324608 15.7576C0.122988 16.0363 0.381533 16.2135 0.659512 16.2135C0.727041 16.2135 0.795742 16.203 0.863467 16.181L1.99613 15.8129C2.34252 15.7003 2.53207 15.3283 2.41952 14.9819Z" fill="black"/>
<path d="M12.5003 22.304C12.1361 22.304 11.8408 22.5993 11.8408 22.9635V24.1545C11.8408 24.5187 12.1361 24.814 12.5003 24.814C12.8645 24.814 13.1598 24.5187 13.1598 24.1545V22.9635C13.1598 22.5992 12.8646 22.304 12.5003 22.304Z" fill="black"/>
<path d="M24.544 14.9275L23.4113 14.5594C23.065 14.447 22.6929 14.6364 22.5803 14.9829C22.4678 15.3293 22.6573 15.7013 23.0037 15.8139L24.1364 16.1819C24.2041 16.2039 24.2727 16.2144 24.3403 16.2144C24.6183 16.2144 24.8768 16.0372 24.9674 15.7584C25.0799 15.4121 24.8904 15.04 24.544 14.9275Z" fill="black"/>
</svg>
