<svg width="25" height="25" viewBox="0 0 25 25" fill="none" xmlns="http://www.w3.org/2000/svg">
<g clip-path="url(#clip0)">
<path d="M24.7332 10.1594L12.8828 1.48278C12.6543 1.31549 12.3438 1.31549 12.1154 1.48278L0.264921 10.1594C-0.0245323 10.3713 -0.087423 10.7778 0.12454 11.0672C0.336503 11.3567 0.742997 11.4195 1.0324 11.2076L12.4991 2.81193L23.9657 11.2076C24.0813 11.2923 24.2157 11.3331 24.3489 11.3331C24.5489 11.3331 24.7463 11.241 24.8735 11.0672C25.0855 10.7778 25.0226 10.3713 24.7332 10.1594Z" fill="black"/>
<path d="M21.5944 11.3546C21.2357 11.3546 20.9449 11.6455 20.9449 12.0042V22.3435H15.7485V16.6997C15.7485 14.9086 14.2914 13.4516 12.5004 13.4516C10.7095 13.4516 9.25239 14.9087 9.25239 16.6997V22.3436H4.05596V12.0042C4.05596 11.6455 3.76509 11.3547 3.4064 11.3547C3.0477 11.3547 2.75684 11.6455 2.75684 12.0042V22.9932C2.75684 23.3519 3.0477 23.6427 3.4064 23.6427H9.90195C10.2436 23.6427 10.5231 23.3788 10.549 23.0438C10.5505 23.0286 10.5515 23.012 10.5515 22.9932V16.6997C10.5515 15.625 11.4258 14.7508 12.5004 14.7508C13.5751 14.7508 14.4494 15.6251 14.4494 16.6997V22.9932C14.4494 23.0119 14.4503 23.0282 14.4519 23.0432C14.4775 23.3785 14.7571 23.6427 15.0989 23.6427H21.5945C21.9532 23.6427 22.244 23.3519 22.244 22.9932V12.0042C22.244 11.6455 21.9532 11.3546 21.5944 11.3546Z" fill="black"/>
</g>
<defs>
<clipPath id="clip0">
<rect width="25" height="25" fill="white"/>
</clipPath>
</defs>
</svg>
