<svg width="25" height="25" viewBox="0 0 25 25" fill="none" xmlns="http://www.w3.org/2000/svg">
<path d="M22.3438 2.65447C18.8079 -0.881465 13.0545 -0.881465 9.5186 2.65447C7.80566 4.36731 6.8624 6.64476 6.8624 9.06712C6.8624 11.2738 7.64556 13.3599 9.07983 15.0089L7.9998 16.0889L6.89912 14.9883C6.77852 14.8677 6.61489 14.7999 6.44434 14.7999C6.27378 14.7999 6.11016 14.8677 5.98955 14.9883L0.832764 20.1451C0.295752 20.682 0 21.3959 0 22.1554C0 22.9147 0.295752 23.6287 0.832666 24.1656C1.36968 24.7026 2.08359 24.9983 2.84292 24.9983C3.60225 24.9983 4.31626 24.7026 4.85317 24.1657L10.01 19.0089C10.1306 18.8883 10.1984 18.7247 10.1984 18.5541C10.1984 18.3836 10.1306 18.2199 10.01 18.0993L8.90933 16.9987L9.9897 15.9183C11.6886 17.3936 13.8097 18.1317 15.9312 18.1317C18.2535 18.1317 20.5759 17.2477 22.3438 15.4798C24.0566 13.7669 25 11.4896 25 9.06722C25 6.64471 24.0567 4.36731 22.3438 2.65447ZM3.9436 23.256C3.64961 23.55 3.25874 23.7119 2.84292 23.7119C2.42715 23.7119 2.03623 23.55 1.74224 23.256C1.44829 22.962 1.28633 22.5711 1.28633 22.1554C1.28633 21.7397 1.44829 21.3487 1.74229 21.0547L4.61992 18.1771L6.82129 20.3783L3.9436 23.256ZM7.73096 19.4687L5.52959 17.2674L6.44434 16.3526L8.6457 18.554L7.73096 19.4687ZM21.4342 14.5701C18.3999 17.6046 13.4626 17.6046 10.4282 14.5701C8.9583 13.1002 8.14878 11.1459 8.14878 9.06712C8.14878 6.98831 8.9583 5.03401 10.4282 3.56414C11.9454 2.04695 13.9383 1.28831 15.9313 1.28831C17.9241 1.28831 19.9171 2.04686 21.4343 3.56414C22.9042 5.03401 23.7137 6.98836 23.7137 9.06712C23.7137 11.1459 22.9042 13.1002 21.4342 14.5701Z" fill="black"/>
<path d="M20.3727 4.62505C17.9236 2.17602 13.9387 2.17592 11.4896 4.62505C9.04057 7.07417 9.04057 11.0591 11.4896 13.5082C12.7142 14.7327 14.3226 15.345 15.9312 15.345C17.5397 15.345 19.1482 14.7327 20.3728 13.5082V13.5082C22.8218 11.0591 22.8218 7.07417 20.3727 4.62505ZM19.4631 12.5986C17.5156 14.5462 14.3468 14.5462 12.3992 12.5987C10.4517 10.6511 10.4517 7.48228 12.3992 5.53472C13.373 4.56079 14.6519 4.07407 15.9312 4.07407C17.2102 4.07407 18.4895 4.56108 19.4631 5.53472C21.4107 7.48223 21.4107 10.6511 19.4631 12.5986Z" fill="black"/>
<path d="M18.3261 6.67168C17.0054 5.35112 14.8567 5.35112 13.536 6.67168C13.2849 6.92285 13.2849 7.33008 13.536 7.58135C13.7872 7.83252 14.1944 7.83252 14.4457 7.58135C15.2646 6.76231 16.5975 6.76231 17.4165 7.58135C17.5421 7.70698 17.7067 7.76973 17.8713 7.76973C18.0359 7.76973 18.2005 7.70693 18.3261 7.58135C18.5772 7.33018 18.5772 6.9229 18.3261 6.67168Z" fill="black"/>
</svg>
